<svg width="65" height="61" viewBox="0 0 65 61" fill="none" xmlns="http://www.w3.org/2000/svg">
<path d="M62.1138 29.007C64.2996 34.5557 61.7061 42.0734 55.6547 48.4153C49.6989 54.657 40.9222 59.1361 32.0118 58.787C22.6529 57.8031 15.1294 54.9927 10.1062 50.2922C5.18007 45.6825 2.43262 39.044 2.94662 29.825C3.00939 29.6131 3.07159 29.4031 3.13322 29.1949C4.62582 24.1548 5.79317 20.213 6.98742 17.0303C8.24389 13.6817 9.47309 11.3376 11.0053 9.56465C14.0091 6.08884 18.5546 4.35939 28.6093 2.54956C37.8797 0.880891 44.8739 4.17215 50.2755 9.52678C55.7514 14.9551 59.541 22.4763 62.1138 29.007Z" stroke="#FF0089" stroke-width="4"/>
<rect x="28.7524" y="17.1326" width="5.65092" height="9.24696" rx="2.82546" fill="#FF0089"/>
<rect x="20.5332" y="21.7561" width="5.65092" height="9.24696" rx="2.82546" fill="#FF0089"/>
<path fill-rule="evenodd" clip-rule="evenodd" d="M14.9424 34.4847C14.84 33.9813 14.24 33.8716 13.8126 34.1565L12.5926 34.9699C11.7314 35.544 11.3041 36.6006 11.6423 37.5789C14.2913 45.2429 22.0544 50.7921 31.2187 50.7921C42.5675 50.7921 51.7675 42.2821 51.7675 31.7845C51.7675 26.4679 49.4078 21.6611 45.6042 18.2115C44.8862 17.5603 43.7939 17.6291 43.0954 18.3011C42.2093 19.1535 42.3248 20.5983 43.2118 21.4496C46.0617 24.1851 47.7675 27.8656 47.7675 31.7845C47.7675 39.785 40.6577 46.7921 31.2187 46.7921C22.8606 46.7921 16.3287 41.2978 14.9424 34.4847V34.4847Z" fill="#FF0089"/>
</svg>
